<svg xmlns="http://www.w3.org/2000/svg" version="1.1" viewBox="-5.0 -10.0 110.0 135.0">
 <path d="m26.562 54.688c0 2.082-3.125 2.082-3.125 0s3.125-2.082 3.125 0"/>
 <path d="m32.812 54.688c0 2.082-3.125 2.082-3.125 0s3.125-2.082 3.125 0"/>
 <path d="m26.562 17.188c0 2.082-3.125 2.082-3.125 0s3.125-2.082 3.125 0"/>
 <path d="m32.812 17.188c0 2.082-3.125 2.082-3.125 0s3.125-2.082 3.125 0"/>
 <path d="m70.312 54.688c0 2.082-3.125 2.082-3.125 0s3.125-2.082 3.125 0"/>
 <path d="m76.562 54.688c0 2.082-3.125 2.082-3.125 0s3.125-2.082 3.125 0"/>
 <path d="m70.312 17.188c0 2.082-3.125 2.082-3.125 0s3.125-2.082 3.125 0"/>
 <path d="m76.562 17.188c0 2.082-3.125 2.082-3.125 0s3.125-2.082 3.125 0"/>
 <path d="m28.125 64.062c2.5859 0 4.6875-2.1016 4.6875-4.6875 0-0.86328-0.69922-1.5625-1.5625-1.5625s-1.5625 0.69922-1.5625 1.5625-0.70312 1.5625-1.5625 1.5625c-0.41797 0-0.80078-0.16016-1.1133-0.47656-0.28906-0.28125-0.44922-0.66797-0.44922-1.0859 0-0.86328-0.69922-1.5625-1.5625-1.5625s-1.5625 0.69922-1.5625 1.5625c0 1.2656 0.49609 2.4453 1.3672 3.293 0.875 0.89844 2.0547 1.3945 3.3203 1.3945z"/>
 <path d="m28.125 26.562c2.5859 0 4.6875-2.1016 4.6875-4.6875 0-0.86328-0.69922-1.5625-1.5625-1.5625s-1.5625 0.69922-1.5625 1.5625-0.70312 1.5625-1.5625 1.5625c-0.41797 0-0.80078-0.16016-1.1133-0.47656-0.28906-0.28125-0.44922-0.66797-0.44922-1.0859 0-0.86328-0.69922-1.5625-1.5625-1.5625s-1.5625 0.69922-1.5625 1.5625c0 1.2656 0.49609 2.4453 1.3672 3.293 0.875 0.89844 2.0547 1.3945 3.3203 1.3945z"/>
 <path d="m70.762 60.461c-0.28906-0.28125-0.44922-0.66797-0.44922-1.0859 0-0.86328-0.69922-1.5625-1.5625-1.5625s-1.5625 0.69922-1.5625 1.5625c0 1.2656 0.49609 2.4453 1.3672 3.293 0.875 0.89844 2.0547 1.3945 3.3203 1.3945 2.5859 0 4.6875-2.1016 4.6875-4.6875 0-0.86328-0.69922-1.5625-1.5625-1.5625s-1.5625 0.69922-1.5625 1.5625-0.70312 1.5625-1.5625 1.5625c-0.41797 0-0.80078-0.16016-1.1133-0.47656z"/>
 <path d="m71.875 26.562c2.5859 0 4.6875-2.1016 4.6875-4.6875 0-0.86328-0.69922-1.5625-1.5625-1.5625s-1.5625 0.69922-1.5625 1.5625-0.70312 1.5625-1.5625 1.5625c-0.41797 0-0.80078-0.16016-1.1133-0.47656-0.28906-0.28125-0.44922-0.66797-0.44922-1.0859 0-0.86328-0.69922-1.5625-1.5625-1.5625s-1.5625 0.69922-1.5625 1.5625c0 1.2656 0.49609 2.4453 1.3672 3.293 0.875 0.89844 2.0547 1.3945 3.3203 1.3945z"/>
 <path d="m64.156 29.688c-6.1914 0-11.629 3.625-14.156 8.8594-2.5273-5.2305-7.5234-8.8594-14.223-8.8594 0.90625-0.88672 1.6406-1.9492 2.1914-3.125h5.7812c0.86328 0 1.5625-0.69922 1.5625-1.5625v-7.8125c0-11.082-6.1055-17.188-17.188-17.188s-17.188 6.1055-17.188 17.188v7.8125c0 0.86328 0.69922 1.5625 1.5625 1.5625h5.75c0.53125 1.1289 1.1484 2.2344 2.168 3.125-8.6172 0-15.73 7.0078-15.73 15.625v15.625c0 4.1328 1.5156 8.1445 4.1953 11.246-2.6797 2.8594-4.1953 6.6484-4.1953 10.629v15.625c0 0.86328 0.69922 1.5625 1.5625 1.5625h87.5c0.86328 0 1.5625-0.69922 1.5625-1.5625v-15.625c0-3.9844-1.5156-7.7773-4.1953-10.629 2.6797-3.1016 4.1953-7.1133 4.1953-11.246v-15.625c0-8.6172-7.0078-15.625-15.625-15.625h-0.16016c0.90625-0.88672 1.6406-1.9492 2.1914-3.125h5.7812c0.86328 0 1.5625-0.69922 1.5625-1.5625v-7.8125c0-11.082-6.1055-17.188-17.188-17.188s-17.188 6.1055-17.188 17.188v7.8125c0 0.86328 0.69922 1.5625 1.5625 1.5625h5.75c0.53125 1.1289 1.1406 2.2734 2.1562 3.125zm-0.09375-7.8125v-6.6875l7.8125-2.6055 7.8125 2.6055v6.6875c0 0.89844-0.15234 1.7656-0.46094 2.6133-1.082 3.1094-4.0352 5.1992-7.3516 5.1992-2.0938 0-4.0547-0.8125-5.5273-2.3008-0.82031-0.80859-1.4492-1.8086-1.832-2.9219-0.30078-0.82422-0.45312-1.6914-0.45312-2.5898zm-12.5 28.125h3.5625c-0.28125 1.457-0.4375 3.0195-0.4375 4.6875v7.8125c0 0.86328 0.69922 1.5625 1.5625 1.5625h5.75c0.82422 2.0234 2.2031 3.0938 2.2344 3.125-3.293 0-6.6406 1.0391-9.2578 2.9336-2.1836-2.5352-3.4141-5.8086-3.4141-9.1836zm28.125 2.6875v6.6875c0 0.89844-0.15234 1.7656-0.46094 2.6133-1.082 3.1094-4.0352 5.1992-7.3516 5.1992-2.0938 0-4.0547-0.8125-5.5273-2.3008-0.82031-0.80859-1.4492-1.8086-1.832-2.9219-0.30078-0.82422-0.45312-1.6914-0.45312-2.5898v-6.6875l7.8125-2.6055zm-59.375-30.812v-6.6875l7.8125-2.6055 7.8125 2.6055v6.6875c0 0.89844-0.15234 1.7656-0.46094 2.6133-1.082 3.1094-4.0352 5.1992-7.3516 5.1992-2.0938 0-4.0547-0.8125-5.5273-2.3008-0.82031-0.80859-1.4492-1.8086-1.832-2.9219-0.30078-0.82422-0.45312-1.6914-0.45312-2.5898zm-12.5 23.438c0-6.8906 5.6094-12.5 12.5-12.5h15.625c6.8906 0 12.5 5.6094 12.5 12.5v1.5625h-4.4414c-1.7461-4.5078-5.9336-9.375-15.871-9.375s-14.125 4.8672-15.871 9.375h-4.4414zm12.5 7.375 7.8125-2.6055 7.8125 2.6055v6.6875c0 0.89844-0.15234 1.7656-0.46094 2.6133-1.082 3.1094-4.0352 5.1992-7.3516 5.1992-2.0938 0-4.0547-0.8125-5.5273-2.3008-0.82031-0.80859-1.4492-1.8086-1.832-2.9219-0.30078-0.82422-0.45312-1.6914-0.45312-2.5898zm17.656 11.375h5.7812c0.86328 0 1.5625-0.69922 1.5625-1.5625v-7.8125c0-1.668-0.15625-3.2305-0.4375-4.6875h3.5625v10.938c0 3.375-1.2344 6.6484-3.4141 9.1836-2.625-1.8984-5.957-2.9336-9.2461-2.9336 0.90625-0.88672 1.6406-1.9492 2.1914-3.125zm-30.156-3.125v-10.938h3.5625c-0.28125 1.457-0.4375 3.0195-0.4375 4.6875v7.8125c0 0.86328 0.69922 1.5625 1.5625 1.5625h5.75c0.53125 1.1289 1.2617 2.2578 2.1445 3.125-3.293 0-6.5508 1.0391-9.168 2.9336-2.1836-2.5352-3.4141-5.8086-3.4141-9.1836zm5.0312 35.938h-5.0312v-9.375h5.0781c0.33203 2.4922 0.80469 4.0391 1.0938 4.8086zm35.594 0h-5.0312l-1.1406-4.5664c0.28906-0.76953 0.76172-2.3203 1.0938-4.8086h5.0781zm-1.0703-24.691c1.0781-1.2461 1.9531-2.6406 2.6328-4.1328 0.67578 1.4883 1.5547 2.8867 2.6328 4.1328-1.0781 1.1484-1.9531 2.4531-2.6328 3.8516-0.67578-1.4023-1.5547-2.707-2.6328-3.8555zm9.2266 24.691h-5.0312v-9.375h5.0781c0.33203 2.4922 0.80469 4.0391 1.0938 4.8086zm35.594 0h-5.0312l-1.1406-4.5664c0.28906-0.76953 0.76172-2.3203 1.0938-4.8086h5.0781zm0-35.938c0 3.375-1.2344 6.6484-3.4141 9.1836-2.625-1.8984-5.957-2.9336-9.2461-2.9336 0.90625-0.88672 1.6406-1.9492 2.1914-3.125h5.7812c0.86328 0 1.5625-0.69922 1.5625-1.5625v-7.8125c0-1.668-0.15625-3.2305-0.4375-4.6875h3.5625zm0-14.062h-4.4414c-1.7461-4.5078-5.9336-9.375-15.871-9.375s-14.125 4.8672-15.871 9.375h-4.4414v-1.5625c0-6.8906 5.6094-12.5 12.5-12.5h15.625c6.8906 0 12.5 5.6094 12.5 12.5z"/>
<text x="0.0" y="117.5" font-size="5.0" font-weight="bold" font-family="Arbeit Regular, Helvetica, Arial-Unicode, Arial, Sans-serif" fill="#000000">Created by Supanut Piyakanont</text><text x="0.0" y="122.5" font-size="5.0" font-weight="bold" font-family="Arbeit Regular, Helvetica, Arial-Unicode, Arial, Sans-serif" fill="#000000">from Noun Project</text></svg>