<svg xmlns="http://www.w3.org/2000/svg" version="1.1" viewBox="-5.0 -10.0 110.0 135.0">
 <path d="m95.703 16.07h-6.3828v-10.395c0-0.99219-0.80469-1.7969-1.7969-1.7969-6.5547 0-13.062 2.3438-19.352 4.6094-6.293 2.2656-12.23 4.4102-18.188 4.4102-5.9531 0-11.863-2.1406-18.145-4.4023-6.293-2.2656-12.805-4.6133-19.363-4.6133-0.99219 0-1.7969 0.80469-1.7969 1.7969v10.395h-6.3828c-0.99219 0-1.7969 0.80469-1.7969 1.7969v50.809c0 0.99219 0.80469 1.7969 1.7969 1.7969h6.9219c0.99219 0 1.7969-0.80469 1.7969-1.7969 0-0.99219-0.80469-1.7969-1.7969-1.7969h-5.125v-47.223h4.5859v39.996c0 0.99219 0.80469 1.7969 1.7969 1.7969 2.4531 0 5.0703 0.36719 8.0039 1.1133 0.14844 0.039063 0.29688 0.058594 0.44531 0.058594 0.80078 0 1.5312-0.53906 1.7422-1.3555 0.24609-0.96484-0.33594-1.9414-1.2969-2.1836-2.5352-0.64844-4.875-1.0352-7.0977-1.1719v-50.379c5.3359 0.36719 10.703 2.3047 16.348 4.3398 5.7188 2.0625 11.613 4.1875 17.566 4.5586v33.52c0 0.99219 0.80469 1.7969 1.7969 1.7969s1.7969-0.80469 1.7969-1.7969v-33.52c5.9727-0.37109 11.879-2.5 17.605-4.5625 5.6445-2.0312 11.008-3.9688 16.34-4.3359v50.383c-2.2227 0.13672-4.5625 0.51953-7.0977 1.1719-0.96484 0.24609-1.543 1.2227-1.2969 2.1836 0.20703 0.8125 0.9375 1.3555 1.7422 1.3555 0.14453 0 0.29688-0.019531 0.44531-0.058594 2.9336-0.75 5.5547-1.1133 8.0039-1.1133 0.99219 0 1.7969-0.80469 1.7969-1.7969v-40h4.5859v47.219h-5.125c-0.99219 0-1.7969 0.80469-1.7969 1.7969 0 0.99219 0.80469 1.7969 1.7969 1.7969h6.9219c0.99219 0 1.7969-0.80469 1.7969-1.7969v-50.809c0-0.99219-0.80469-1.7969-1.7969-1.7969z"/>
 <path d="m20.742 40.551c3.2305 0.83984 6.5781 2.1758 9.8203 3.4648 3.3438 1.332 6.8008 2.7109 10.254 3.6055 0.15234 0.039062 0.30469 0.058594 0.45312 0.058594 0.80078 0 1.5312-0.53906 1.7422-1.3477 0.25-0.96484-0.32812-1.9414-1.2852-2.1953-3.2344-0.83984-6.5898-2.1758-9.8281-3.4688-3.3398-1.332-6.7969-2.707-10.242-3.6055-0.96875-0.23828-1.9453 0.32812-2.1953 1.2852-0.25 0.96484 0.32812 1.9414 1.2852 2.1953z"/>
 <path d="m20.742 30.211c3.2305 0.83984 6.5781 2.1758 9.8203 3.4648 3.3438 1.332 6.8008 2.7109 10.254 3.6055 0.15234 0.039062 0.30469 0.058594 0.45312 0.058594 0.80078 0 1.5312-0.53906 1.7422-1.3477 0.25-0.96484-0.32812-1.9414-1.2852-2.1953-3.2344-0.83984-6.5898-2.1758-9.8281-3.4688-3.3398-1.332-6.7969-2.707-10.242-3.6055-0.96875-0.23828-1.9453 0.32812-2.1953 1.2852-0.25 0.96484 0.32812 1.9414 1.2852 2.1953z"/>
 <path d="m20.75 19.906c3.2578 0.83203 6.6328 2.1758 9.9023 3.4688 3.3164 1.3164 6.7422 2.6797 10.164 3.5703 0.15234 0.039063 0.30469 0.058594 0.45312 0.058594 0.80078 0 1.5312-0.53906 1.7422-1.3477 0.25-0.96484-0.32812-1.9414-1.2852-2.1953-3.207-0.83594-6.5312-2.1523-9.7461-3.4297-3.3711-1.3359-6.8594-2.7227-10.336-3.6094-0.98047-0.25391-1.9414 0.33594-2.1836 1.2969-0.24609 0.96484 0.33594 1.9414 1.2969 2.1836z"/>
 <path d="m20.746 50.887c3.2461 0.83984 6.4492 2.1211 9.8438 3.4805 1.7539 0.70312 3.5117 1.4023 5.2734 2.0469 0.19531 0.070313 0.43359 0.10547 0.64062 0.10547 0.99219 0 1.7812-0.80469 1.7812-1.7969 0-0.80078-0.53125-1.4766-1.2539-1.7109-1.7109-0.62109-3.4102-1.3008-5.1094-1.9844-3.3477-1.3359-6.8086-2.7227-10.277-3.6211-0.97266-0.23828-1.9414 0.32812-2.1914 1.2891-0.25 0.96094 0.32812 1.9414 1.2891 2.1914z"/>
 <path d="m56.992 46.332c0.21094 0.80859 0.94141 1.3477 1.7422 1.3477 0.14844 0 0.30078-0.019532 0.45312-0.058594 3.4492-0.89844 6.9062-2.2773 10.254-3.6055 3.2422-1.2891 6.5938-2.625 9.8203-3.4648 0.96094-0.25391 1.5352-1.2305 1.2852-2.1953-0.25391-0.96094-1.2188-1.5234-2.1953-1.2852-3.4453 0.89844-6.9023 2.2734-10.242 3.6055-3.2461 1.293-6.5938 2.6289-9.8281 3.4688-0.96094 0.25391-1.5352 1.2305-1.2852 2.1953z"/>
 <path d="m78.355 47.402c-3.4688 0.89844-6.9297 2.2852-10.277 3.6211-1.6641 0.66797-3.3359 1.3359-5.0078 1.9453-0.78125 0.19531-1.3516 0.90234-1.3516 1.7461 0 0.99219 0.82031 1.7969 1.8125 1.7969 0.20703 0 0.41406-0.035157 0.60938-0.10547 1.7656-0.64062 3.5234-1.3438 5.2734-2.0469 3.3906-1.3594 6.5938-2.6406 9.8438-3.4805 0.96484-0.25 1.5391-1.2305 1.2891-2.1914-0.25391-0.96484-1.2266-1.5312-2.1914-1.2891z"/>
 <path d="m58.73 27.008c0.14844 0 0.30078-0.019531 0.45312-0.058593 3.4219-0.89062 6.8477-2.2539 10.164-3.5703 3.2695-1.2969 6.6445-2.6406 9.9023-3.4688 0.96484-0.24609 1.543-1.2227 1.2969-2.1836-0.24609-0.96484-1.2227-1.5508-2.1836-1.2969-3.4805 0.88672-6.9648 2.2734-10.336 3.6094-3.2148 1.2773-6.5391 2.5938-9.7461 3.4297-0.96094 0.25391-1.5352 1.2305-1.2852 2.1953 0.21094 0.80859 0.94141 1.3477 1.7422 1.3477z"/>
 <path d="m56.992 35.996c0.21094 0.80859 0.94141 1.3477 1.7422 1.3477 0.14844 0 0.30078-0.019531 0.45312-0.058594 3.4492-0.89844 6.9062-2.2773 10.254-3.6055 3.2422-1.2891 6.5938-2.625 9.8203-3.4648 0.96094-0.25391 1.5352-1.2305 1.2852-2.1953-0.25391-0.96094-1.2188-1.5195-2.1953-1.2852-3.4453 0.89844-6.9023 2.2734-10.242 3.6055-3.2461 1.293-6.5938 2.6289-9.8281 3.4688-0.96094 0.25391-1.5352 1.2305-1.2852 2.1953z"/>
 <path d="m82.051 68.137-31.395-12.387c-0.42578-0.16406-0.89453-0.16406-1.3203 0l-31.395 12.387c-0.68359 0.27344-1.1367 0.9375-1.1367 1.6719 0 0.73828 0.44922 1.4023 1.1367 1.6719l12.586 4.9688v12.488c0 0.51562 0.21875 1.0039 0.60156 1.3477 0.26953 0.23828 6.7305 5.8398 18.863 5.8398 12.133 0 18.598-5.6016 18.867-5.8398 0.38281-0.34375 0.60156-0.83203 0.60156-1.3477v-12.488l5.6016-2.2109v8.1211c0 0.99219 0.80469 1.7969 1.7969 1.7969s1.7969-0.80469 1.7969-1.7969v-9.5391l3.3945-1.3398c0.68359-0.27344 1.1367-0.9375 1.1367-1.6719 0-0.73828-0.44922-1.4023-1.1367-1.6719zm-32.051-8.7812 26.496 10.453-26.496 10.457-26.496-10.457zm15.875 28.699c-1.7227 1.2305-7.0938 4.4727-15.879 4.4727-8.7148 0-14.141-3.2539-15.875-4.4805v-10.184l15.215 6.0039c0.21484 0.085937 0.4375 0.125 0.66016 0.125 0.22656 0 0.44922-0.039063 0.66016-0.12109l15.219-6.0039z"/>
<text x="0.0" y="117.5" font-size="5.0" font-weight="bold" font-family="Arbeit Regular, Helvetica, Arial-Unicode, Arial, Sans-serif" fill="#000000">Created by Adrien Coquet</text><text x="0.0" y="122.5" font-size="5.0" font-weight="bold" font-family="Arbeit Regular, Helvetica, Arial-Unicode, Arial, Sans-serif" fill="#000000">from Noun Project</text></svg>