<svg xmlns="http://www.w3.org/2000/svg" viewBox="0 0 32 40" x="0px" y="0px"><title>21-studying</title><g data-name="21-studying"><path d="M8,24H3V9H4V22a1,1,0,0,0,1,1H9.71a3.15,3.15,0,0,1,.53,0,5,5,0,0,1,3.31,2.15A12.85,12.85,0,0,0,8,24Zm7-.2-.09-.1A6.86,6.86,0,0,0,9.71,21H6V6H9.71c2.58,0,4.76,2.43,5.2,5.78a.36.36,0,0,0,0,.11A8.07,8.07,0,0,1,15,13Zm2.09-.1-.09.1V13a8.07,8.07,0,0,1,.07-1.11.36.36,0,0,0,0-.11C17.53,8.43,19.71,6,22.29,6H26V21H22.29a5.84,5.84,0,0,0-.73.05l-.23,0A6.88,6.88,0,0,0,17.09,23.7ZM29,24H24a13,13,0,0,0-5.55,1.18A5.08,5.08,0,0,1,21.76,23a3.15,3.15,0,0,1,.53,0H27a1,1,0,0,0,1-1V9h1Z"/></g><text x="0" y="47" fill="#000000" font-size="5px" font-weight="bold" font-family="'Helvetica Neue', Helvetica, Arial-Unicode, Arial, Sans-serif">Created by Fiki Ahmadi</text><text x="0" y="52" fill="#000000" font-size="5px" font-weight="bold" font-family="'Helvetica Neue', Helvetica, Arial-Unicode, Arial, Sans-serif">from the Noun Project</text></svg>