<svg xmlns="http://www.w3.org/2000/svg" version="1.1" viewBox="-5.0 -10.0 110.0 135.0">
 <path d="m94.922 73.172c0-0.10938-0.046875-0.20312-0.10938-0.28125l-6.9844-6.9688c-0.14062-0.15625-0.39062-0.15625-0.54688 0l-6.9219 6.9219-10.781-10.797c4.5781-6.1719 6.9844-13.516 6.9844-21.219-1.9453-47.41-69.527-47.43-71.484 0 0 19.703 16.031 35.734 35.75 35.734 7.7031 0 15.047-2.4062 21.219-6.9844l10.797 10.781-6.9219 6.9219c-0.14453 0.14453-0.15234 0.40625 0 0.54688l6.9688 6.9844c0.16016 0.14844 0.40234 0.14844 0.5625 0l6.9062-6.9219 6.4375 6.4375c0.15625 0.14062 0.40625 0.14062 0.5625 0l6.9688-6.9688c0.15625-0.15625 0.15625-0.40625 0-0.5625l-6.4375-6.4375 6.9219-6.9062c0.0625-0.078125 0.10938-0.17188 0.10938-0.28125zm-54.094-62.203c16.453 0 29.844 13.391 29.844 29.859-1.6445 39.602-58.07 39.57-59.703 0 0-16.469 13.391-29.859 29.859-29.859z"/>
 <path d="m48.156 27.625c1.6406-0.5625 3.2188-0.95312 4.5625-1.2812-0.76953-2.3906-2.0234-6.707-5.125-6.0625-0.83594 0.20312-0.74219 2.2852-0.42188 3.9688l0.98438 3.375z"/>
 <path d="m45.281 28.922c-0.30859-1.0586-1.25-4.3203-1.5469-5.3281-0.98828-3.25-5.8125-1.7734-4.8281 1.4688 0.75781 2.1797 2.7539 7.9219 3.5 10.016 0.21094 1.168 1.082 2.1758 2.3125 2.1562-3.1133-1.9102-2.7812-6.0742 0.5625-8.3125z"/>
 <path d="m29.125 30.891c-1.4023-2.75-5.4844-0.61328-4.0469 2.1094 0.90625 1.6172 2.9648 5.2812 3.8438 6.8594 1.25 2.1953 4.5938 0.48828 3.5312-1.8125-0.03125-0.042969-3.3047-7.1289-3.3281-7.1562z"/>
 <path d="m35.75 25.547c-1.2188-3.3164-6.2109-1.3125-4.7656 1.9375 0.90234 1.9453 3.793 8.1484 4.7344 10.156 1.1328 2.3398 4.668 0.77734 3.6875-1.6406l-3.4688-9.9375z"/>
 <path d="m59.453 41.094c0.26562-0.35938 0.39062-0.78125 0.39062-1.1875-0.046875-4.2344-1.0938-7.2031-1.9688-8.9375-0.6875-1.3906-2.3281-2.1094-3.8906-1.7188-2.125 0.71875-8.3242 1.3359-8.2656 4.4688 0.28516 1.2852 1.6094 1.0234 2.4844 1.1719 4.3516 0.28125 5.625-1.2109 5.5625-1.2188 0.39062-0.78125 1.2969-1.0625 2.0781-0.67188 2.4531 1.6719-0.54688 5.1406-6.7344 5.0469-0.58984 0.82422-1.2969 1.4609-2.3125 1.875-4.4062 2.8438-4.875 5.8438-4.8906 5.9688-0.30469 2-3.2969 1.6523-3.1094-0.375 3.25-5.875 3.1719-5.9219 3.0938-5.9688-3.0781 5.8281-2.7344 3.0938 0.23438 0.14062-1.6758 1.9688-4.6289 2.9688-6.9688 1.6406-1.3906 2.7461-5.3125 3.5352-7.6719 1.5625 0.1875 3.7812 1.2969 9.6875 5.4844 16.391 0.15625 0.25 0.23438 0.53125 0.23438 0.82812v6.2969c2.3438 0.78906 5.0039 1.1172 7.625 1.1406 3.3438 0 6.5625-0.625 9.5156-1.7656l0.76562-10.5c0.20312-2.8594 1.3438-5.6094 3.2344-7.7812 2.6562-3.0781 4.3438-5.3281 5.1094-6.4062z"/>
 <path d="m30.078 65.281v-4.7344c-6.6562-10.922-5.9219-19.797-5.5625-22.172l-2.1562-3.8594c-2.2031-3.6328 1.082-8.5742 5.2656-8.0156-0.21484-4.3633 5.0703-7.3945 8.7188-4.9375 1.3984-2.7539 5.332-3.832 7.9375-2.0781 1.4219-3 4.625-2.8984 6.9375-1.5312 2.8281 1.8281 4.1562 6.0781 4.6406 8.1562 6.0234 1.1367 6.7852 8.2539 7.1094 13.766-0.16016 5.2578-8.5508 9.1406-8.75 15.625l-0.625 8.7812c8.3125-4.5312 13.953-13.344 13.953-23.453 0-14.734-11.984-26.734-26.719-26.734-29.02 0.45312-36.859 39.395-10.75 51.188z"/>
<text x="0.0" y="117.5" font-size="5.0" font-weight="bold" font-family="Arbeit Regular, Helvetica, Arial-Unicode, Arial, Sans-serif" fill="#000000">Created by sentya irma</text><text x="0.0" y="122.5" font-size="5.0" font-weight="bold" font-family="Arbeit Regular, Helvetica, Arial-Unicode, Arial, Sans-serif" fill="#000000">from Noun Project</text></svg>