<svg xmlns="http://www.w3.org/2000/svg" version="1.1" viewBox="-5.0 -10.0 110.0 135.0">
 <path d="m40.82 10.973c-16.457 0-29.848 13.391-29.848 29.848 1.6406 39.598 58.062 39.586 59.695 0 0-16.457-13.391-29.848-29.848-29.848zm-7.625 55.449c0 0.007813 0.011719-6.3125 0.003907-6.3164 0-0.29297-0.082031-0.57812-0.23438-0.82422-4.1758-6.7109-5.2891-12.598-5.4922-16.391 2.3711 1.9766 6.2734 1.1992 7.6602-1.5781 2.2617 1.3203 5.4336 0.43359 6.7656-1.7812 0.078124 0.050781 0.15625 0.097656 0.23437 0.14062-3.3711 3.5859-4.4297 7.1211-1.9766 7.5586 0.83203 0.10938 1.6289-0.49609 1.7461-1.3438 0.019531-0.125 0.48828-3.1016 4.8633-5.9414 1.0352-0.42578 1.7461-1.0664 2.3359-1.9062 6.207 0.089844 9.2031-3.3555 6.7422-5.043-0.77344-0.37891-1.6875-0.10547-2.0703 0.66797-0.011719 0.015626-1.2266 1.707-6.6211 1.1367-0.48438-0.050781-1.3164-0.26172-1.4336-1.0898-0.15234-2.9648 5.9062-3.7344 7.918-4.3867 1.6367-0.53906 3.5 0.125 4.2422 1.6406 0.87109 1.7383 1.918 4.6992 1.9688 8.9414 0.003906 0.40625-0.13281 0.81641-0.39062 1.1836-0.76953 1.0742-2.457 3.3359-5.1172 6.4023-1.8789 2.168-3.0273 4.9297-3.2305 7.7773l-0.75391 10.484c-5.2422 2.0938-11.719 2.3633-17.156 0.66406zm-0.81641-42.422c1.3125-0.55078 2.9375 0.19531 3.3789 1.5469 0 0 2.7148 7.7578 2.7148 7.7578 0.019532 0.066406 1.0352 2.9375 1 2.9141 0.71094 2.3516-2.7383 3.6367-3.7578 1.4141l-4.7266-10.145c-0.64062-1.2969 0.035157-2.9883 1.3945-3.4883zm6.5273 1.0664c-0.98047-3.2383 3.8398-4.7266 4.8242-1.4727l1.5508 5.3477c-3.3047 2.2227-3.6797 6.3086-0.63281 8.2539-1.0859-0.015624-1.9258-0.84375-2.1875-1.8867-0.73438-2.2656-2.7656-7.918-3.5547-10.242zm8.6875-4.793c3.1016-0.62891 4.3594 3.6797 5.1094 6.0664-1.3438 0.33203-2.9141 0.73438-4.543 1.293l-1-3.4531c-0.3125-1.6836-0.38281-3.6914 0.4375-3.9062zm-18.457 10.645 0.15625 0.33984 3.1641 6.793c0.23828 0.50781 0.25 1.0742 0.039063 1.5898-0.5625 1.5234-2.8359 1.6602-3.5859 0.22266l-3.8359-6.8711c-1.4531-2.7383 2.6875-4.8672 4.0586-2.0742zm24.449 33.371s0.63281-8.793 0.63281-8.793c0.15625-2.1758 1.0352-4.293 2.4766-5.9531 2.6016-3.0039 4.3164-5.2617 5.293-6.6289 0.65234-0.91016 0.98828-1.9609 0.97656-3.0391-0.046875-3.8828-0.82031-7.3516-2.2969-10.305-0.94141-1.8828-2.7695-3.1172-4.7969-3.4453-0.49219-2.0703-1.8086-6.332-4.6562-8.1758-2.3164-1.3672-5.5391-1.4648-6.9453 1.5547-2.5781-1.8164-6.5586-0.66797-7.9141 2.0977-3.6016-2.543-8.9961 0.55078-8.7305 4.9219-2.3555-0.30078-4.7969 1.1875-5.6055 3.4375-1.3203 2.9219 1.2305 5.9805 2.4883 8.418-0.35937 2.3711-1.0898 11.227 5.5664 22.168v4.7227c-9.3945-4.1445-15.977-13.539-15.977-24.449 0-14.734 11.988-26.723 26.723-26.723 27.797 0.32812 36.75 36.926 12.766 50.191z"/>
 <path d="m96.094 73.172c0-0.41406-0.16406-0.8125-0.45703-1.1055l-6.9727-6.9727c-0.60937-0.60938-1.5977-0.60938-2.2109 0l-6.0898 6.0898-9.2578-9.2578c4.3398-6.207 6.6289-13.477 6.6289-21.105-2.0117-48.949-71.801-48.984-73.832 0-0.25 29.5 34.035 47.379 58.023 30.289l9.2578 9.2578-6.0898 6.0898c-0.60547 0.58203-0.60547 1.6289 0 2.2109l6.9727 6.9727c0.60938 0.60938 1.5977 0.60938 2.2109 0l6.0898-6.0898 5.6094 5.6094c0.58203 0.60547 1.6289 0.60547 2.2109 0l6.9727-6.9727c0.60938-0.60938 0.60938-1.5977 0-2.2109l-5.6094-5.6094 6.0898-6.0898c0.29297-0.29297 0.45703-0.69141 0.45703-1.1055zm-9.8594 6.0898c-0.60938 0.60938-0.60938 1.5977 0 2.2109l5.6094 5.6094-4.7617 4.7617-5.6094-5.6094c-0.58203-0.60547-1.6289-0.60547-2.2109 0l-6.0898 6.0898-4.7617-4.7617 6.0898-6.0898c0.60547-0.58203 0.60547-1.6289 0-2.2109l-11.305-11.305c-0.55078-0.55078-1.4219-0.61328-2.0469-0.14453-21.816 16.793-54.359 0.55859-54.117-26.992 0-18.633 15.156-33.789 33.789-33.789 27.566-0.22266 43.777 32.285 26.992 54.117-0.46875 0.62109-0.41016 1.4961 0.14062 2.0469l11.305 11.305c0.58594 0.58594 1.625 0.58594 2.2109 0l6.0898-6.0898 4.7617 4.7617-6.0898 6.0898z"/>
<text x="0.0" y="117.5" font-size="5.0" font-weight="bold" font-family="Arbeit Regular, Helvetica, Arial-Unicode, Arial, Sans-serif" fill="#000000">Created by sentya irma</text><text x="0.0" y="122.5" font-size="5.0" font-weight="bold" font-family="Arbeit Regular, Helvetica, Arial-Unicode, Arial, Sans-serif" fill="#000000">from Noun Project</text></svg>