<svg xmlns="http://www.w3.org/2000/svg" version="1.1" viewBox="-5.0 -10.0 110.0 135.0">
 <path d="m56.801 61.406c0-1.8555-1.5117-3.3633-3.3711-3.3633-1.8555 0-3.3672 1.5078-3.3672 3.3633 0 1.8594 1.5078 3.3711 3.3672 3.3711 1.8594 0 3.3711-1.5117 3.3711-3.3711z"/>
 <path d="m53.43 50.004c-8.2773 0-15.012 6.7344-15.012 15.016s6.7344 15.02 15.012 15.02c8.2773 0 15.016-6.7383 15.016-15.02s-6.7383-15.016-15.016-15.016zm3.4531 19.121c0.92188 0 1.6719 0.74609 1.6719 1.668s-0.75 1.6719-1.6719 1.6719h-1.7812v2.6797c0 0.92188-0.75 1.6719-1.6719 1.6719-0.92188 0-1.6719-0.75-1.6719-1.6719v-2.6797h-1.7812c-0.92187 0-1.6719-0.75-1.6719-1.6719s0.75-1.668 1.6719-1.668h1.7812v-1.2461c-2.8867-0.75-5.0352-3.3555-5.0352-6.4766 0-3.6953 3.0078-6.7031 6.707-6.7031 3.7031 0 6.7109 3.0078 6.7109 6.7031 0 3.1211-2.1523 5.7266-5.043 6.4766v1.2461z"/>
 <path d="m87.324 20.918c-0.31641-0.16797-0.61719-0.25-0.92188-0.25-1.3359 0-2.9766 1.6055-4.5078 4.4023l-9.7109 18.352c-0.38672 0.73047-1.2539 1.0664-2.0312 0.79688-0.78125-0.27344-1.2422-1.0781-1.0859-1.8906l5.1016-26.758c0.13672-0.71875 0.6875-4.3359-1.8281-4.9102-0.22656-0.054687-0.44531-0.078125-0.65234-0.078125-1.9258 0-3.0938 2.6211-3.6172 4.1836l-8.0586 25.926c-0.24609 0.78906-1.0352 1.2773-1.8438 1.1562-0.81641-0.125-1.4219-0.82422-1.4219-1.6523v-34.344c0-2.3672-1.9297-4.2891-4.2969-4.2891-2.3672 0-4.293 1.9219-4.293 4.2891v32.52c0 0.82031-0.59766 1.5234-1.4102 1.6523-0.8125 0.125-1.5977-0.35938-1.8516-1.1406l-8.4688-26.312c-0.52344-1.5234-1.7969-4.1289-4.3633-4.1289-0.39844 0-0.81641 0.0625-1.2461 0.1875-3.0234 0.88672-2.7344 4.1758-2.2969 6.0547l7.6602 32.59c0.17969 0.75781-0.19531 1.543-0.89844 1.8828-0.70312 0.34375-1.5469 0.14844-2.0352-0.46094l-8.5742-10.742c-2.9766-4.4609-5.8047-6.7539-8.2656-6.7539-0.98438 0-1.9375 0.35938-2.9141 1.1016-1.9844 1.5078-2.6289 5.3203-0.41797 8.5938 1.0977 1.625 2.0625 2.9609 2.9062 4.1289 3.6289 5.0156 5.2852 7.3047 5.2852 15.809 0 11.051 4.6406 20.258 12.734 25.258 0.49219 0.30469 0.79297 0.84375 0.79297 1.4219v10.926h36.836v-10.922c0-0.42188 0.15625-0.82422 0.44141-1.1328 6.8477-7.4336 8.3438-15.297 8.5312-25.578 0.03125-1.5781-0.035156-3.293-0.10156-4.9492-0.13281-3.4727-0.27344-7.0625 0.41797-10.023 0.015625-0.0625 0.03125-0.125 0.054687-0.17969l6.293-17.703c0.96094-2.7148 1.7578-6.1328 0.058594-7.0312zm-33.895 62.461c-10.121 0-18.352-8.2344-18.352-18.359 0-10.121 8.2344-18.355 18.352-18.355 10.121 0 18.355 8.2344 18.355 18.355 0 10.125-8.2344 18.359-18.355 18.359z"/>
<text x="0.0" y="117.5" font-size="5.0" font-weight="bold" font-family="Arbeit Regular, Helvetica, Arial-Unicode, Arial, Sans-serif" fill="#000000">Created by Romaldon</text><text x="0.0" y="122.5" font-size="5.0" font-weight="bold" font-family="Arbeit Regular, Helvetica, Arial-Unicode, Arial, Sans-serif" fill="#000000">from Noun Project</text></svg>