<svg xmlns="http://www.w3.org/2000/svg" version="1.1" viewBox="-5.0 -10.0 110.0 135.0">
 <path d="m99.992 39.848h-0.13281s1.4414-9.8359-7.6055-22.16c-9.0469-12.199-21.504-15.477-28.719-16.262-3.1484-0.26172-5.9023 2.2305-5.9023 5.375v33.047h-35.543l-5.2383-14.816c-0.26172-0.78516-0.91797-1.4414-1.7031-1.8359l-10.492-4.7188c-1.7031-0.78516-3.5391-0.13281-4.3281 1.5742-0.78516 1.5742-0.13281 3.5391 1.5742 4.3281l9.1797 4.1953 4.1758 11.543c-0.18359 2.8242-0.87109 29.215 35.547 31.32l-10.445 7.1367c-1.8711-1.418-4.1953-2.2695-6.7227-2.2695-6.1641 0-11.145 4.9844-11.145 11.145 0 6.1641 4.9844 11.145 11.145 11.145 6.1641 0 11.145-4.9844 11.145-11.145 0-1.2617-0.21875-2.4727-0.60547-3.6055l12.145-8.3281 12.879 8.918c-0.26953 0.96094-0.42188 1.9688-0.42188 3.0156 0 6.1641 4.9844 11.145 11.145 11.145 6.0312 0 11.016-4.9844 11.145-11.145 0-6.1641-4.9844-11.145-11.145-11.145-2.7227 0-5.2148 0.97656-7.1484 2.5938l-10.863-7.5508c39.613-2.832 38.078-31.5 38.078-31.5zm-66.355 52.32c-2.4922 0-4.5898-2.0977-4.5898-4.5898s2.0977-4.5898 4.5898-4.5898c2.4922 0 4.5898 2.0977 4.5898 4.5898s-2.0977 4.5898-4.5898 4.5898zm46.293-9.1797c2.4922 0 4.5898 2.0977 4.5898 4.5898s-2.0977 4.5898-4.5898 4.5898c-2.4922 0-4.5898-2.0977-4.5898-4.5898s2.0977-4.5898 4.5898-4.5898z"/>
<text x="0.0" y="117.5" font-size="5.0" font-weight="bold" font-family="Arbeit Regular, Helvetica, Arial-Unicode, Arial, Sans-serif" fill="#000000">Created by Taewon Kang</text><text x="0.0" y="122.5" font-size="5.0" font-weight="bold" font-family="Arbeit Regular, Helvetica, Arial-Unicode, Arial, Sans-serif" fill="#000000">from Noun Project</text></svg>